<svg xmlns="http://www.w3.org/2000/svg" viewBox="0 0 1200 420"><defs><linearGradient id="g" x2="1" y2="1"><stop stop-color="#30372e"/><stop offset=".55" stop-color="#151b18"/><stop offset="1" stop-color="#080c0c"/></linearGradient><filter id="grain"><feTurbulence baseFrequency=".75" numOctaves="2" stitchTiles="stitch"/><feColorMatrix values=".2 0 0 0 0 .2 0 0 0 0 .18 0 0 0 .14 0 0 .16 0"/></filter></defs><rect width="1200" height="420" fill="url(#g)"/><path d="M0 340L210 245l150 42 205-150 185 84 170-106 280 125v180H0z" fill="#0b100e" opacity=".75"/><path d="M100 310l240-90 190 35 180-88 230 82" fill="none" stroke="#9b8759" stroke-opacity=".25" stroke-width="3"/><g fill="#0a0d0c" stroke="#b19a67" stroke-opacity=".55"><path d="M545 104h82l24 27v112h-130V131z"/><path d="M557 89h58v18h-58z"/><path d="M505 152l-76 42v15l78-23z"/><path d="M627 151l90 31v17l-90-14z"/></g><circle cx="587" cy="167" r="19" fill="#b9a477" fill-opacity=".18"/><g stroke="#d3c092" stroke-opacity=".18" fill="none"><path d="M880 70h220v220H880z"/><path d="M935 70v220M990 70v220M1045 70v220M1100 70v220M880 125h220M880 180h220M880 235h220"/></g><rect width="1200" height="420" filter="url(#grain)" opacity=".18"/></svg>