<svg xmlns="http://www.w3.org/2000/svg" viewBox="0 0 1200 420"><defs><linearGradient id="g" x2="0" y2="1"><stop stop-color="#27332c"/><stop offset=".65" stop-color="#111816"/><stop offset="1" stop-color="#070a0a"/></linearGradient></defs><rect width="1200" height="420" fill="url(#g)"/><path d="M0 315l260-80 180 28 180-80 220 55 360-88v270H0z" fill="#080d0b"/><g fill="#161d19" stroke="#b49a63" stroke-opacity=".65" stroke-width="4"><path d="M330 278l50-48h275l58 48v46H330z"/><path d="M475 230l36-55h125l38 55z"/><path d="M563 176l14-63h31l18 63z"/><circle cx="410" cy="329" r="42"/><circle cx="642" cy="329" r="42"/><circle cx="410" cy="329" r="17" fill="#927b4d"/><circle cx="642" cy="329" r="17" fill="#927b4d"/></g><path d="M780 120h285M820 160h205M865 200h130" stroke="#cdbb8e" stroke-opacity=".2" stroke-width="5"/><text x="815" y="255" fill="#cdbb8e" opacity=".28" font-family="Arial" font-size="28" letter-spacing="8">ARMOR / VEHICLE</text></svg>